# xmcd
#
# Track frame offsets:
#	150
#	12986
#	26586
#	41299
#	55566
#	68423
#	82158
#	95719
#	109978
#	122770
#	136764
#	151192
#	165741
#	179381
#	192968
#	206699
#	220301
#	234275
#	248751
#	262840
#	277232
#	290745
#	303945
#
# Disc length: 4227 seconds
# Revision: 2
# Processed by: cddbd v1.5.2PL0 Copyright (c) Steve Scherf et al.
# Submitted via: dBpowerAMP V12.0
#
DISCID=42108117
DTITLE=John Lee Hooker - Vol.2 - Detroit 1949
DYEAR=2003
DGENRE=Blues
TTITLE0=Nightmare Blues
TTITLE1=Late Last Night
TTITLE2=Wandering Blues
TTITLE3=Don't Go Baby
TTITLE4=Devil's Jump
TTITLE5=I'm Gonna Kill That Woman
TTITLE6=Moaning Blues
TTITLE7=The Numbers
TTITLE8=Weeping Willow
TTITLE9=My Baby She's Long and Tall
TTITLE10=Miss Sadie Mae
TTITLE11=Forgive Me
TTITLE12=Sometime
TTITLE13=Heart Trouble Blues
TTITLE14=Slim's Stomp
TTITLE15=Miss Lorraine
TTITLE16=Talkin' Boogie
TTITLE17=I Love to Boogie
TTITLE18=I Love to Boogie
TTITLE19=Graveyard Blues
TTITLE20=609 Boogie
TTITLE21=Road Trouble
TTITLE22=Curl My Babys Hair
EXTD=
EXTT0=
EXTT1=
EXTT2=
EXTT3=
EXTT4=
EXTT5=
EXTT6=
EXTT7=
EXTT8=
EXTT9=
EXTT10=
EXTT11=
EXTT12=
EXTT13=
EXTT14=
EXTT15=
EXTT16=
EXTT17=
EXTT18=
EXTT19=
EXTT20=
EXTT21=
EXTT22=
PLAYORDER=
